<svg width="990" height="392" viewBox="0 0 990 392" fill="none" xmlns="http://www.w3.org/2000/svg">
<path d="M59.1176 -394H1V-328.583M59.1176 -394V-328.583M59.1176 -394H117.235M59.1176 -328.583H1M59.1176 -328.583H117.235M59.1176 -328.583V-263.167M1 -328.583V-263.167M117.235 -394V-328.583M117.235 -394H175.353M117.235 -328.583H175.353M117.235 -328.583V-263.167M175.353 -394V-328.583M175.353 -394H233.471M175.353 -328.583H233.471M175.353 -328.583V-263.167M233.471 -394V-328.583M233.471 -394H291.588M233.471 -328.583H291.588M233.471 -328.583V-263.167M291.588 -394V-328.583M291.588 -394H349.706M291.588 -328.583H349.706M291.588 -328.583V-263.167M349.706 -394V-328.583M349.706 -394H407.824M349.706 -328.583H407.824M349.706 -328.583V-263.167M407.824 -394V-328.583M407.824 -394H465.941M407.824 -328.583H465.941M407.824 -328.583V-263.167M465.941 -394V-328.583M465.941 -394H524.059M465.941 -328.583H524.059M465.941 -328.583V-263.167M524.059 -394V-328.583M524.059 -394H582.176M524.059 -328.583H582.176M524.059 -328.583V-263.167M582.176 -394V-328.583M582.176 -394H640.294M582.176 -328.583H640.294M582.176 -328.583V-263.167M640.294 -394V-328.583M640.294 -394H698.412M640.294 -328.583H698.412M640.294 -328.583V-263.167M698.412 -394V-328.583M698.412 -394H756.529M698.412 -328.583H756.529M698.412 -328.583V-263.167M756.529 -394V-328.583M756.529 -394H814.647M756.529 -328.583H814.647M756.529 -328.583V-263.167M814.647 -394V-328.583M814.647 -394H872.765M814.647 -328.583H872.765M814.647 -328.583V-263.167M872.765 -394V-328.583M872.765 -394H930.882M872.765 -328.583H930.882M872.765 -328.583V-263.167M930.882 -394V-328.583M930.882 -394H989V-328.583M930.882 -328.583H989M930.882 -328.583V-263.167M989 -328.583V-263.167M59.1176 -263.167H1M59.1176 -263.167H117.235M59.1176 -263.167V-197.75M1 -263.167V-197.75M117.235 -263.167H175.353M117.235 -263.167V-197.75M175.353 -263.167H233.471M175.353 -263.167V-197.75M233.471 -263.167H291.588M233.471 -263.167V-197.75M291.588 -263.167H349.706M291.588 -263.167V-197.75M349.706 -263.167H407.824M349.706 -263.167V-197.75M407.824 -263.167H465.941M407.824 -263.167V-197.75M465.941 -263.167H524.059M465.941 -263.167V-197.75M524.059 -263.167H582.176M524.059 -263.167V-197.75M582.176 -263.167H640.294M582.176 -263.167V-197.75M640.294 -263.167H698.412M640.294 -263.167V-197.75M698.412 -263.167H756.529M698.412 -263.167V-197.75M756.529 -263.167H814.647M756.529 -263.167V-197.75M814.647 -263.167H872.765M814.647 -263.167V-197.75M872.765 -263.167H930.882M872.765 -263.167V-197.75M930.882 -263.167H989M930.882 -263.167V-197.75M989 -263.167V-197.75M59.1176 -197.75H1M59.1176 -197.75H117.235M59.1176 -197.75V-132.333M1 -197.75V-132.333M117.235 -197.75H175.353M117.235 -197.75V-132.333M175.353 -197.75H233.471M175.353 -197.75V-132.333M233.471 -197.75H291.588M233.471 -197.75V-132.333M291.588 -197.75H349.706M291.588 -197.75V-132.333M349.706 -197.75H407.824M349.706 -197.75V-132.333M407.824 -197.75H465.941M407.824 -197.75V-132.333M465.941 -197.75H524.059M465.941 -197.75V-132.333M524.059 -197.75H582.176M524.059 -197.75V-132.333M582.176 -197.75H640.294M582.176 -197.75V-132.333M640.294 -197.75H698.412M640.294 -197.75V-132.333M698.412 -197.75H756.529M698.412 -197.75V-132.333M756.529 -197.75H814.647M756.529 -197.75V-132.333M814.647 -197.75H872.765M814.647 -197.75V-132.333M872.765 -197.75H930.882M872.765 -197.75V-132.333M930.882 -197.75H989M930.882 -197.75V-132.333M989 -197.75V-132.333M59.1176 -132.333H1M59.1176 -132.333H117.235M59.1176 -132.333V-66.9167M1 -132.333V-66.9167M117.235 -132.333H175.353M117.235 -132.333V-66.9167M175.353 -132.333H233.471M175.353 -132.333V-66.9167M233.471 -132.333H291.588M233.471 -132.333V-66.9167M291.588 -132.333H349.706M291.588 -132.333V-66.9167M349.706 -132.333H407.824M349.706 -132.333V-66.9167M407.824 -132.333H465.941M407.824 -132.333V-66.9167M465.941 -132.333H524.059M465.941 -132.333V-66.9167M524.059 -132.333H582.176M524.059 -132.333V-66.9167M582.176 -132.333H640.294M582.176 -132.333V-66.9167M640.294 -132.333H698.412M640.294 -132.333V-66.9167M698.412 -132.333H756.529M698.412 -132.333V-66.9167M756.529 -132.333H814.647M756.529 -132.333V-66.9167M814.647 -132.333H872.765M814.647 -132.333V-66.9167M872.765 -132.333H930.882M872.765 -132.333V-66.9167M930.882 -132.333H989M930.882 -132.333V-66.9167M989 -132.333V-66.9167M59.1176 -66.9167H1M59.1176 -66.9167H117.235M59.1176 -66.9167V-1.50001M1 -66.9167V-1.50001M117.235 -66.9167H175.353M117.235 -66.9167V-1.50001M175.353 -66.9167H233.471M175.353 -66.9167V-1.50001M233.471 -66.9167H291.588M233.471 -66.9167V-1.50001M291.588 -66.9167H349.706M291.588 -66.9167V-1.50001M349.706 -66.9167H407.824M349.706 -66.9167V-1.50001M407.824 -66.9167H465.941M407.824 -66.9167V-1.50001M465.941 -66.9167H524.059M465.941 -66.9167V-1.50001M524.059 -66.9167H582.176M524.059 -66.9167V-1.50001M582.176 -66.9167H640.294M582.176 -66.9167V-1.50001M640.294 -66.9167H698.412M640.294 -66.9167V-1.50001M698.412 -66.9167H756.529M698.412 -66.9167V-1.50001M756.529 -66.9167H814.647M756.529 -66.9167V-1.50001M814.647 -66.9167H872.765M814.647 -66.9167V-1.50001M872.765 -66.9167H930.882M872.765 -66.9167V-1.50001M930.882 -66.9167H989M930.882 -66.9167V-1.50001M989 -66.9167V-1.50001M59.1176 -1.50001H1M59.1176 -1.50001H117.235M59.1176 -1.50001V63.9167M1 -1.50001V63.9167M117.235 -1.50001H175.353M117.235 -1.50001V63.9167M175.353 -1.50001H233.471M175.353 -1.50001V63.9167M233.471 -1.50001H291.588M233.471 -1.50001V63.9167M291.588 -1.50001H349.706M291.588 -1.50001V63.9167M349.706 -1.50001H407.824M349.706 -1.50001V63.9167M407.824 -1.50001H465.941M407.824 -1.50001V63.9167M465.941 -1.50001H524.059M465.941 -1.50001V63.9167M524.059 -1.50001H582.176M524.059 -1.50001V63.9167M582.176 -1.50001H640.294M582.176 -1.50001V63.9167M640.294 -1.50001H698.412M640.294 -1.50001V63.9167M698.412 -1.50001H756.529M698.412 -1.50001V63.9167M756.529 -1.50001H814.647M756.529 -1.50001V63.9167M814.647 -1.50001H872.765M814.647 -1.50001V63.9167M872.765 -1.50001H930.882M872.765 -1.50001V63.9167M930.882 -1.50001H989M930.882 -1.50001V63.9167M989 -1.50001V63.9167M59.1176 63.9167H1M59.1176 63.9167H117.235M59.1176 63.9167V129.333M1 63.9167V129.333M117.235 63.9167H175.353M117.235 63.9167V129.333M175.353 63.9167H233.471M175.353 63.9167V129.333M233.471 63.9167H291.588M233.471 63.9167V129.333M291.588 63.9167H349.706M291.588 63.9167V129.333M349.706 63.9167H407.824M349.706 63.9167V129.333M407.824 63.9167H465.941M407.824 63.9167V129.333M465.941 63.9167H524.059M465.941 63.9167V129.333M524.059 63.9167H582.176M524.059 63.9167V129.333M582.176 63.9167H640.294M582.176 63.9167V129.333M640.294 63.9167H698.412M640.294 63.9167V129.333M698.412 63.9167H756.529M698.412 63.9167V129.333M756.529 63.9167H814.647M756.529 63.9167V129.333M814.647 63.9167H872.765M814.647 63.9167V129.333M872.765 63.9167H930.882M872.765 63.9167V129.333M930.882 63.9167H989M930.882 63.9167V129.333M989 63.9167V129.333M59.1176 129.333H1M59.1176 129.333H117.235M59.1176 129.333V194.75M1 129.333V194.75M117.235 129.333H175.353M117.235 129.333V194.75M175.353 129.333H233.471M175.353 129.333V194.75M233.471 129.333H291.588M233.471 129.333V194.75M291.588 129.333H349.706M291.588 129.333V194.75M349.706 129.333H407.824M349.706 129.333V194.75M407.824 129.333H465.941M407.824 129.333V194.75M465.941 129.333H524.059M465.941 129.333V194.75M524.059 129.333H582.176M524.059 129.333V194.75M582.176 129.333H640.294M582.176 129.333V194.75M640.294 129.333H698.412M640.294 129.333V194.75M698.412 129.333H756.529M698.412 129.333V194.75M756.529 129.333H814.647M756.529 129.333V194.75M814.647 129.333H872.765M814.647 129.333V194.75M872.765 129.333H930.882M872.765 129.333V194.75M930.882 129.333H989M930.882 129.333V194.75M989 129.333V194.75M59.1176 194.75H1M59.1176 194.75H117.235M59.1176 194.75V260.167M1 194.75V260.167M117.235 194.75H175.353M117.235 194.75V260.167M175.353 194.75H233.471M175.353 194.75V260.167M233.471 194.75H291.588M233.471 194.75V260.167M291.588 194.75H349.706M291.588 194.75V260.167M349.706 194.75H407.824M349.706 194.75V260.167M407.824 194.75H465.941M407.824 194.75V260.167M465.941 194.75H524.059M465.941 194.75V260.167M524.059 194.75H582.176M524.059 194.75V260.167M582.176 194.75H640.294M582.176 194.75V260.167M640.294 194.75H698.412M640.294 194.75V260.167M698.412 194.75H756.529M698.412 194.75V260.167M756.529 194.75H814.647M756.529 194.75V260.167M814.647 194.75H872.765M814.647 194.75V260.167M872.765 194.75H930.882M872.765 194.75V260.167M930.882 194.75H989M930.882 194.75V260.167M989 194.75V260.167M59.1176 260.167H1M59.1176 260.167H117.235M59.1176 260.167V325.583M1 260.167V325.583M117.235 260.167H175.353M117.235 260.167V325.583M175.353 260.167H233.471M175.353 260.167V325.583M233.471 260.167H291.588M233.471 260.167V325.583M291.588 260.167H349.706M291.588 260.167V325.583M349.706 260.167H407.824M349.706 260.167V325.583M407.824 260.167H465.941M407.824 260.167V325.583M465.941 260.167H524.059M465.941 260.167V325.583M524.059 260.167H582.176M524.059 260.167V325.583M582.176 260.167H640.294M582.176 260.167V325.583M640.294 260.167H698.412M640.294 260.167V325.583M698.412 260.167H756.529M698.412 260.167V325.583M756.529 260.167H814.647M756.529 260.167V325.583M814.647 260.167H872.765M814.647 260.167V325.583M872.765 260.167H930.882M872.765 260.167V325.583M930.882 260.167H989M930.882 260.167V325.583M989 260.167V325.583M59.1176 325.583H1M59.1176 325.583H117.235M59.1176 325.583V391M1 325.583V391H59.1176M117.235 325.583H175.353M117.235 325.583V391M175.353 325.583H233.471M175.353 325.583V391M233.471 325.583H291.588M233.471 325.583V391M291.588 325.583H349.706M291.588 325.583V391M349.706 325.583H407.824M349.706 325.583V391M407.824 325.583H465.941M407.824 325.583V391M465.941 325.583H524.059M465.941 325.583V391M524.059 325.583H582.176M524.059 325.583V391M582.176 325.583H640.294M582.176 325.583V391M640.294 325.583H698.412M640.294 325.583V391M698.412 325.583H756.529M698.412 325.583V391M756.529 325.583H814.647M756.529 325.583V391M814.647 325.583H872.765M814.647 325.583V391M872.765 325.583H930.882M872.765 325.583V391M930.882 325.583H989M930.882 325.583V391M989 325.583V391H930.882M59.1176 391H117.235M117.235 391H175.353M175.353 391H233.471M233.471 391H291.588M291.588 391H349.706M349.706 391H407.824M407.824 391H465.941M465.941 391H524.059M524.059 391H582.176M582.176 391H640.294M640.294 391H698.412M698.412 391H756.529M756.529 391H814.647M814.647 391H872.765M872.765 391H930.882" stroke="url(#paint0_radial_2303_1810)"/>
<defs>
<radialGradient id="paint0_radial_2303_1810" cx="0" cy="0" r="1" gradientUnits="userSpaceOnUse" gradientTransform="translate(495 -1.5) rotate(90) scale(392.5 494)">
<stop stop-color="white" stop-opacity="0.5"/>
<stop offset="1" stop-color="#999999" stop-opacity="0"/>
</radialGradient>
</defs>
</svg>
