<svg width="80" height="108" viewBox="0 0 80 108" fill="none" xmlns="http://www.w3.org/2000/svg">
<path opacity="0.1" fill-rule="evenodd" clip-rule="evenodd" d="M92.0623 77.8986H97.1523C102.464 77.8986 106.668 73.4725 106.668 68.1613V9.51602C106.668 4.42606 102.464 0 97.1523 0H26.5567C21.2454 0 16.8193 4.42606 16.8193 9.51602V12.6143H80.1119C86.751 12.6143 92.0623 17.9255 92.0623 24.3433V77.8986ZM8.85211 107.559C9.1166 107.78 9.29472 107.78 9.29472 107.78C9.51602 107.78 9.80749 107.78 9.95863 107.559L37.8428 92.5046H80.1116C85.4229 92.5046 89.849 88.2998 89.849 82.9886V24.3433C89.849 19.032 85.4229 14.8273 80.1116 14.8273H9.51602C4.20475 14.8273 0 19.032 0 24.3433V82.9886C0 87.8572 3.76215 92.062 8.40951 92.5046L8.18821 106.673C8.18821 107.116 8.40951 107.559 8.85211 107.559ZM11.7291 25.6711H79.4477C80.1116 25.6711 80.5542 25.2285 80.5542 24.5646C80.5542 24.122 80.1116 23.4581 79.4477 23.4581H11.7291C11.0651 23.4581 10.6225 24.122 10.6225 24.5646C10.6225 25.2285 11.0651 25.6711 11.7291 25.6711ZM11.7291 37.4002H79.4477C80.1116 37.4002 80.5542 36.9576 80.5542 36.2937C80.5542 35.6298 80.1116 35.1872 79.4477 35.1872H11.7291C11.0651 35.1872 10.6225 35.6298 10.6225 36.2937C10.6225 36.9576 11.0651 37.4002 11.7291 37.4002ZM11.7291 48.9079H79.4477C80.1116 48.9079 80.5542 48.4653 80.5542 47.8014C80.5542 47.3588 80.1116 46.6949 79.4477 46.6949H11.7291C11.0651 46.6949 10.6225 47.3588 10.6225 47.8014C10.6225 48.4653 11.0651 48.9079 11.7291 48.9079ZM11.7291 60.637H79.4477C80.1116 60.637 80.5542 60.1944 80.5542 59.5305C80.5542 58.8666 80.1116 58.424 79.4477 58.424H11.7291C11.0651 58.424 10.6225 58.8666 10.6225 59.5305C10.6225 60.1944 11.0651 60.637 11.7291 60.637ZM11.7291 72.1447H79.4477C80.1116 72.1447 80.5542 71.7021 80.5542 71.0382C80.5542 70.5956 80.1116 69.9317 79.4477 69.9317H11.7291C11.0651 69.9317 10.6225 70.5956 10.6225 71.0382C10.6225 71.7021 11.0651 72.1447 11.7291 72.1447ZM11.7291 83.8738H79.4477C80.1116 83.8738 80.5542 83.4312 80.5542 82.7673C80.5542 82.1034 80.1116 81.6608 79.4477 81.6608H11.7291C11.0651 81.6608 10.6225 82.1034 10.6225 82.7673C10.6225 83.4312 11.0651 83.8738 11.7291 83.8738Z" fill="url(#paint0_linear_2303_1844)"/>
<defs>
<linearGradient id="paint0_linear_2303_1844" x1="0" y1="53.8899" x2="106.668" y2="53.8899" gradientUnits="userSpaceOnUse">
<stop stop-color="white"/>
<stop offset="1" stop-color="#B6B6B6"/>
</linearGradient>
</defs>
</svg>
